# xmcd
#
# Track frame offsets:
#	150
#	18085
#	35912
#	53922
#	75879
#	94024
#	112608
#	130255
#	146204
#	168245
#	187414
#
# Disc length: 2724 seconds
#
# Revision: 2
# Processed by: cddbd v1.5.2PL0 Copyright (c) Steve Scherf et al.
# Submitted via: EZCDAudioConverter 8.0.2.1
#
DISCID=8b0aa20b
DTITLE=Vũ Quốc Việt - Hạnh Phúc Mong Manh
DYEAR=2010
DGENRE=Contemporary Pop
TTITLE0=Vũ Quốc Việt - Hạnh Phúc Mong Manh
TTITLE1=Vũ Quốc Việt - Quyến rũ
TTITLE2=Vũ Quốc Việt - Như chưa hề yêu
TTITLE3=Vũ Quốc Việt - Cũng vì em yêu
TTITLE4=Vũ Quốc Việt - Phép nhiệm màu
TTITLE5=Vũ Quốc Việt, Mắt Ngọc - Hãy cho nhau
TTITLE6=Vũ Quốc Việt - Xin cho anh yêu
TTITLE7=Vũ Quốc Việt - Em đẹp nhất đêm nay
TTITLE8=Vũ Quốc Việt - Vàng son một thuở yêu em
TTITLE9=Vũ Quốc Việt, Maya - Quyến rũ (Version 2)
TTITLE10=Vũ Quốc Việt - Hạnh Phúc Mong Manh (Version 2)
EXTD=
EXTT0=
EXTT1=
EXTT2=
EXTT3=
EXTT4=
EXTT5=
EXTT6=
EXTT7=
EXTT8=
EXTT9=
EXTT10=
PLAYORDER=
